<mxfile host="app.diagrams.net" modified="2022-12-05T16:16:53.268Z" agent="5.0 (Windows NT 10.0; Win64; x64) AppleWebKit/537.36 (KHTML, like Gecko) Chrome/108.0.0.0 Safari/537.36" version="20.6.0" etag="AZMbuOvMPju4nHsfk6Kl" type="github">
  <diagram id="58i71vIp0DSQAaQ-KLFG" name="Page-1">
    <mxGraphModel dx="1038" dy="547" grid="1" gridSize="10" guides="1" tooltips="1" connect="1" arrows="1" fold="1" page="1" pageScale="1" pageWidth="827" pageHeight="1169" math="0" shadow="0">
      <root>
        <mxCell id="0" />
        <mxCell id="1" parent="0" />
        <mxCell id="SexQwbuxVjq8nabJnQk3-14" value="Actor" style="swimlane;fontStyle=0;childLayout=stackLayout;horizontal=1;startSize=26;horizontalStack=0;resizeParent=1;resizeParentMax=0;resizeLast=0;collapsible=1;marginBottom=0;align=center;fontSize=14;" vertex="1" parent="1">
          <mxGeometry x="20" y="150" width="120" height="184" as="geometry" />
        </mxCell>
        <mxCell id="SexQwbuxVjq8nabJnQk3-24" value="film_id" style="text;strokeColor=none;fillColor=none;spacingLeft=4;spacingRight=4;overflow=hidden;rotatable=0;points=[[0,0.5],[1,0.5]];portConstraint=eastwest;fontSize=12;fontStyle=1" vertex="1" parent="SexQwbuxVjq8nabJnQk3-14">
          <mxGeometry y="26" width="120" height="34" as="geometry" />
        </mxCell>
        <mxCell id="SexQwbuxVjq8nabJnQk3-15" value="Actor_id" style="text;strokeColor=none;fillColor=none;spacingLeft=4;spacingRight=4;overflow=hidden;rotatable=0;points=[[0,0.5],[1,0.5]];portConstraint=eastwest;fontSize=12;fontStyle=0" vertex="1" parent="SexQwbuxVjq8nabJnQk3-14">
          <mxGeometry y="60" width="120" height="30" as="geometry" />
        </mxCell>
        <mxCell id="SexQwbuxVjq8nabJnQk3-16" value="first_name" style="text;strokeColor=none;fillColor=none;spacingLeft=4;spacingRight=4;overflow=hidden;rotatable=0;points=[[0,0.5],[1,0.5]];portConstraint=eastwest;fontSize=12;" vertex="1" parent="SexQwbuxVjq8nabJnQk3-14">
          <mxGeometry y="90" width="120" height="30" as="geometry" />
        </mxCell>
        <mxCell id="SexQwbuxVjq8nabJnQk3-17" value="last_name" style="text;strokeColor=none;fillColor=none;spacingLeft=4;spacingRight=4;overflow=hidden;rotatable=0;points=[[0,0.5],[1,0.5]];portConstraint=eastwest;fontSize=12;" vertex="1" parent="SexQwbuxVjq8nabJnQk3-14">
          <mxGeometry y="120" width="120" height="34" as="geometry" />
        </mxCell>
        <mxCell id="SexQwbuxVjq8nabJnQk3-23" value="last_update" style="text;strokeColor=none;fillColor=none;spacingLeft=4;spacingRight=4;overflow=hidden;rotatable=0;points=[[0,0.5],[1,0.5]];portConstraint=eastwest;fontSize=12;" vertex="1" parent="SexQwbuxVjq8nabJnQk3-14">
          <mxGeometry y="154" width="120" height="30" as="geometry" />
        </mxCell>
        <mxCell id="SexQwbuxVjq8nabJnQk3-25" value="film_category" style="swimlane;fontStyle=0;childLayout=stackLayout;horizontal=1;startSize=26;horizontalStack=0;resizeParent=1;resizeParentMax=0;resizeLast=0;collapsible=1;marginBottom=0;align=center;fontSize=14;" vertex="1" parent="1">
          <mxGeometry x="20" y="400" width="120" height="116" as="geometry" />
        </mxCell>
        <mxCell id="SexQwbuxVjq8nabJnQk3-26" value="film_id" style="text;strokeColor=none;fillColor=none;spacingLeft=4;spacingRight=4;overflow=hidden;rotatable=0;points=[[0,0.5],[1,0.5]];portConstraint=eastwest;fontSize=12;fontStyle=1" vertex="1" parent="SexQwbuxVjq8nabJnQk3-25">
          <mxGeometry y="26" width="120" height="30" as="geometry" />
        </mxCell>
        <mxCell id="SexQwbuxVjq8nabJnQk3-27" value="category_id" style="text;strokeColor=none;fillColor=none;spacingLeft=4;spacingRight=4;overflow=hidden;rotatable=0;points=[[0,0.5],[1,0.5]];portConstraint=eastwest;fontSize=12;" vertex="1" parent="SexQwbuxVjq8nabJnQk3-25">
          <mxGeometry y="56" width="120" height="30" as="geometry" />
        </mxCell>
        <mxCell id="SexQwbuxVjq8nabJnQk3-28" value="category_name" style="text;strokeColor=none;fillColor=none;spacingLeft=4;spacingRight=4;overflow=hidden;rotatable=0;points=[[0,0.5],[1,0.5]];portConstraint=eastwest;fontSize=12;" vertex="1" parent="SexQwbuxVjq8nabJnQk3-25">
          <mxGeometry y="86" width="120" height="30" as="geometry" />
        </mxCell>
        <mxCell id="SexQwbuxVjq8nabJnQk3-29" value="category" style="swimlane;fontStyle=0;childLayout=stackLayout;horizontal=1;startSize=26;horizontalStack=0;resizeParent=1;resizeParentMax=0;resizeLast=0;collapsible=1;marginBottom=0;align=center;fontSize=14;" vertex="1" parent="1">
          <mxGeometry x="700" y="1090" width="120" height="56" as="geometry" />
        </mxCell>
        <mxCell id="SexQwbuxVjq8nabJnQk3-32" value=" " style="text;strokeColor=none;fillColor=none;spacingLeft=4;spacingRight=4;overflow=hidden;rotatable=0;points=[[0,0.5],[1,0.5]];portConstraint=eastwest;fontSize=12;" vertex="1" parent="SexQwbuxVjq8nabJnQk3-29">
          <mxGeometry y="26" width="120" height="30" as="geometry" />
        </mxCell>
        <mxCell id="SexQwbuxVjq8nabJnQk3-33" value="film_actor" style="swimlane;fontStyle=0;childLayout=stackLayout;horizontal=1;startSize=26;horizontalStack=0;resizeParent=1;resizeParentMax=0;resizeLast=0;collapsible=1;marginBottom=0;align=center;fontSize=14;" vertex="1" parent="1">
          <mxGeometry x="570" y="1090" width="120" height="56" as="geometry" />
        </mxCell>
        <mxCell id="SexQwbuxVjq8nabJnQk3-34" value=" " style="text;strokeColor=none;fillColor=none;spacingLeft=4;spacingRight=4;overflow=hidden;rotatable=0;points=[[0,0.5],[1,0.5]];portConstraint=eastwest;fontSize=12;" vertex="1" parent="SexQwbuxVjq8nabJnQk3-33">
          <mxGeometry y="26" width="120" height="30" as="geometry" />
        </mxCell>
        <mxCell id="SexQwbuxVjq8nabJnQk3-35" value="last" style="swimlane;fontStyle=0;childLayout=stackLayout;horizontal=1;startSize=26;horizontalStack=0;resizeParent=1;resizeParentMax=0;resizeLast=0;collapsible=1;marginBottom=0;align=center;fontSize=14;" vertex="1" parent="1">
          <mxGeometry x="260" y="190" width="120" height="406" as="geometry" />
        </mxCell>
        <mxCell id="SexQwbuxVjq8nabJnQk3-36" value="film_id    " style="text;strokeColor=none;fillColor=none;spacingLeft=4;spacingRight=4;overflow=hidden;rotatable=0;points=[[0,0.5],[1,0.5]];portConstraint=eastwest;fontSize=12;fontStyle=1" vertex="1" parent="SexQwbuxVjq8nabJnQk3-35">
          <mxGeometry y="26" width="120" height="30" as="geometry" />
        </mxCell>
        <mxCell id="SexQwbuxVjq8nabJnQk3-37" value="title" style="text;strokeColor=none;fillColor=none;spacingLeft=4;spacingRight=4;overflow=hidden;rotatable=0;points=[[0,0.5],[1,0.5]];portConstraint=eastwest;fontSize=12;" vertex="1" parent="SexQwbuxVjq8nabJnQk3-35">
          <mxGeometry y="56" width="120" height="30" as="geometry" />
        </mxCell>
        <mxCell id="SexQwbuxVjq8nabJnQk3-38" value="description" style="text;strokeColor=none;fillColor=none;spacingLeft=4;spacingRight=4;overflow=hidden;rotatable=0;points=[[0,0.5],[1,0.5]];portConstraint=eastwest;fontSize=12;" vertex="1" parent="SexQwbuxVjq8nabJnQk3-35">
          <mxGeometry y="86" width="120" height="34" as="geometry" />
        </mxCell>
        <mxCell id="SexQwbuxVjq8nabJnQk3-39" value="release_year" style="text;strokeColor=none;fillColor=none;spacingLeft=4;spacingRight=4;overflow=hidden;rotatable=0;points=[[0,0.5],[1,0.5]];portConstraint=eastwest;fontSize=12;fontStyle=0" vertex="1" parent="SexQwbuxVjq8nabJnQk3-35">
          <mxGeometry y="120" width="120" height="34" as="geometry" />
        </mxCell>
        <mxCell id="SexQwbuxVjq8nabJnQk3-40" value="language_id" style="text;strokeColor=none;fillColor=none;spacingLeft=4;spacingRight=4;overflow=hidden;rotatable=0;points=[[0,0.5],[1,0.5]];portConstraint=eastwest;fontSize=12;" vertex="1" parent="SexQwbuxVjq8nabJnQk3-35">
          <mxGeometry y="154" width="120" height="36" as="geometry" />
        </mxCell>
        <mxCell id="SexQwbuxVjq8nabJnQk3-42" value="language_name" style="text;strokeColor=none;fillColor=none;spacingLeft=4;spacingRight=4;overflow=hidden;rotatable=0;points=[[0,0.5],[1,0.5]];portConstraint=eastwest;fontSize=12;" vertex="1" parent="SexQwbuxVjq8nabJnQk3-35">
          <mxGeometry y="190" width="120" height="36" as="geometry" />
        </mxCell>
        <mxCell id="SexQwbuxVjq8nabJnQk3-43" value="length" style="text;strokeColor=none;fillColor=none;spacingLeft=4;spacingRight=4;overflow=hidden;rotatable=0;points=[[0,0.5],[1,0.5]];portConstraint=eastwest;fontSize=12;" vertex="1" parent="SexQwbuxVjq8nabJnQk3-35">
          <mxGeometry y="226" width="120" height="36" as="geometry" />
        </mxCell>
        <mxCell id="SexQwbuxVjq8nabJnQk3-44" value="replacement_cost" style="text;strokeColor=none;fillColor=none;spacingLeft=4;spacingRight=4;overflow=hidden;rotatable=0;points=[[0,0.5],[1,0.5]];portConstraint=eastwest;fontSize=12;" vertex="1" parent="SexQwbuxVjq8nabJnQk3-35">
          <mxGeometry y="262" width="120" height="36" as="geometry" />
        </mxCell>
        <mxCell id="SexQwbuxVjq8nabJnQk3-45" value="rating" style="text;strokeColor=none;fillColor=none;spacingLeft=4;spacingRight=4;overflow=hidden;rotatable=0;points=[[0,0.5],[1,0.5]];portConstraint=eastwest;fontSize=12;" vertex="1" parent="SexQwbuxVjq8nabJnQk3-35">
          <mxGeometry y="298" width="120" height="36" as="geometry" />
        </mxCell>
        <mxCell id="SexQwbuxVjq8nabJnQk3-46" value="special_features" style="text;strokeColor=none;fillColor=none;spacingLeft=4;spacingRight=4;overflow=hidden;rotatable=0;points=[[0,0.5],[1,0.5]];portConstraint=eastwest;fontSize=12;" vertex="1" parent="SexQwbuxVjq8nabJnQk3-35">
          <mxGeometry y="334" width="120" height="36" as="geometry" />
        </mxCell>
        <mxCell id="SexQwbuxVjq8nabJnQk3-47" value="last_update" style="text;strokeColor=none;fillColor=none;spacingLeft=4;spacingRight=4;overflow=hidden;rotatable=0;points=[[0,0.5],[1,0.5]];portConstraint=eastwest;fontSize=12;" vertex="1" parent="SexQwbuxVjq8nabJnQk3-35">
          <mxGeometry y="370" width="120" height="36" as="geometry" />
        </mxCell>
        <mxCell id="SexQwbuxVjq8nabJnQk3-48" value="language" style="swimlane;fontStyle=0;childLayout=stackLayout;horizontal=1;startSize=26;horizontalStack=0;resizeParent=1;resizeParentMax=0;resizeLast=0;collapsible=1;marginBottom=0;align=center;fontSize=14;" vertex="1" parent="1">
          <mxGeometry x="180" y="1090" width="120" height="56" as="geometry" />
        </mxCell>
        <mxCell id="SexQwbuxVjq8nabJnQk3-49" value=" " style="text;strokeColor=none;fillColor=none;spacingLeft=4;spacingRight=4;overflow=hidden;rotatable=0;points=[[0,0.5],[1,0.5]];portConstraint=eastwest;fontSize=12;" vertex="1" parent="SexQwbuxVjq8nabJnQk3-48">
          <mxGeometry y="26" width="120" height="30" as="geometry" />
        </mxCell>
        <mxCell id="SexQwbuxVjq8nabJnQk3-50" value="film_text" style="swimlane;fontStyle=0;childLayout=stackLayout;horizontal=1;startSize=26;horizontalStack=0;resizeParent=1;resizeParentMax=0;resizeLast=0;collapsible=1;marginBottom=0;align=center;fontSize=14;" vertex="1" parent="1">
          <mxGeometry x="50" y="1090" width="120" height="56" as="geometry" />
        </mxCell>
        <mxCell id="SexQwbuxVjq8nabJnQk3-51" value=" " style="text;strokeColor=none;fillColor=none;spacingLeft=4;spacingRight=4;overflow=hidden;rotatable=0;points=[[0,0.5],[1,0.5]];portConstraint=eastwest;fontSize=12;" vertex="1" parent="SexQwbuxVjq8nabJnQk3-50">
          <mxGeometry y="26" width="120" height="30" as="geometry" />
        </mxCell>
        <mxCell id="SexQwbuxVjq8nabJnQk3-52" value="address" style="swimlane;fontStyle=0;childLayout=stackLayout;horizontal=1;startSize=26;horizontalStack=0;resizeParent=1;resizeParentMax=0;resizeLast=0;collapsible=1;marginBottom=0;align=center;fontSize=14;" vertex="1" parent="1">
          <mxGeometry x="470" y="190" width="120" height="300" as="geometry" />
        </mxCell>
        <mxCell id="SexQwbuxVjq8nabJnQk3-53" value="address_id" style="text;strokeColor=none;fillColor=none;spacingLeft=4;spacingRight=4;overflow=hidden;rotatable=0;points=[[0,0.5],[1,0.5]];portConstraint=eastwest;fontSize=12;fontStyle=1" vertex="1" parent="SexQwbuxVjq8nabJnQk3-52">
          <mxGeometry y="26" width="120" height="30" as="geometry" />
        </mxCell>
        <mxCell id="SexQwbuxVjq8nabJnQk3-54" value="address" style="text;strokeColor=none;fillColor=none;spacingLeft=4;spacingRight=4;overflow=hidden;rotatable=0;points=[[0,0.5],[1,0.5]];portConstraint=eastwest;fontSize=12;" vertex="1" parent="SexQwbuxVjq8nabJnQk3-52">
          <mxGeometry y="56" width="120" height="30" as="geometry" />
        </mxCell>
        <mxCell id="SexQwbuxVjq8nabJnQk3-55" value="address2" style="text;strokeColor=none;fillColor=none;spacingLeft=4;spacingRight=4;overflow=hidden;rotatable=0;points=[[0,0.5],[1,0.5]];portConstraint=eastwest;fontSize=12;" vertex="1" parent="SexQwbuxVjq8nabJnQk3-52">
          <mxGeometry y="86" width="120" height="34" as="geometry" />
        </mxCell>
        <mxCell id="SexQwbuxVjq8nabJnQk3-56" value="district" style="text;strokeColor=none;fillColor=none;spacingLeft=4;spacingRight=4;overflow=hidden;rotatable=0;points=[[0,0.5],[1,0.5]];portConstraint=eastwest;fontSize=12;fontStyle=0" vertex="1" parent="SexQwbuxVjq8nabJnQk3-52">
          <mxGeometry y="120" width="120" height="34" as="geometry" />
        </mxCell>
        <mxCell id="SexQwbuxVjq8nabJnQk3-57" value="city_id" style="text;strokeColor=none;fillColor=none;spacingLeft=4;spacingRight=4;overflow=hidden;rotatable=0;points=[[0,0.5],[1,0.5]];portConstraint=eastwest;fontSize=12;" vertex="1" parent="SexQwbuxVjq8nabJnQk3-52">
          <mxGeometry y="154" width="120" height="30" as="geometry" />
        </mxCell>
        <mxCell id="SexQwbuxVjq8nabJnQk3-58" value="postal_code" style="text;strokeColor=none;fillColor=none;spacingLeft=4;spacingRight=4;overflow=hidden;rotatable=0;points=[[0,0.5],[1,0.5]];portConstraint=eastwest;fontSize=12;" vertex="1" parent="SexQwbuxVjq8nabJnQk3-52">
          <mxGeometry y="184" width="120" height="30" as="geometry" />
        </mxCell>
        <mxCell id="SexQwbuxVjq8nabJnQk3-59" value="phone" style="text;strokeColor=none;fillColor=none;spacingLeft=4;spacingRight=4;overflow=hidden;rotatable=0;points=[[0,0.5],[1,0.5]];portConstraint=eastwest;fontSize=12;" vertex="1" parent="SexQwbuxVjq8nabJnQk3-52">
          <mxGeometry y="214" width="120" height="30" as="geometry" />
        </mxCell>
        <mxCell id="SexQwbuxVjq8nabJnQk3-60" value="country" style="text;strokeColor=none;fillColor=none;spacingLeft=4;spacingRight=4;overflow=hidden;rotatable=0;points=[[0,0.5],[1,0.5]];portConstraint=eastwest;fontSize=12;" vertex="1" parent="SexQwbuxVjq8nabJnQk3-52">
          <mxGeometry y="244" width="120" height="30" as="geometry" />
        </mxCell>
        <mxCell id="SexQwbuxVjq8nabJnQk3-61" value="last_update" style="text;strokeColor=none;fillColor=none;spacingLeft=4;spacingRight=4;overflow=hidden;rotatable=0;points=[[0,0.5],[1,0.5]];portConstraint=eastwest;fontSize=12;" vertex="1" parent="SexQwbuxVjq8nabJnQk3-52">
          <mxGeometry y="274" width="120" height="26" as="geometry" />
        </mxCell>
        <mxCell id="SexQwbuxVjq8nabJnQk3-62" value="Country" style="swimlane;fontStyle=0;childLayout=stackLayout;horizontal=1;startSize=26;horizontalStack=0;resizeParent=1;resizeParentMax=0;resizeLast=0;collapsible=1;marginBottom=0;align=center;fontSize=14;" vertex="1" parent="1">
          <mxGeometry x="440" y="1090" width="120" height="56" as="geometry" />
        </mxCell>
        <mxCell id="SexQwbuxVjq8nabJnQk3-63" value=" " style="text;strokeColor=none;fillColor=none;spacingLeft=4;spacingRight=4;overflow=hidden;rotatable=0;points=[[0,0.5],[1,0.5]];portConstraint=eastwest;fontSize=12;fontStyle=1" vertex="1" parent="SexQwbuxVjq8nabJnQk3-62">
          <mxGeometry y="26" width="120" height="30" as="geometry" />
        </mxCell>
        <mxCell id="SexQwbuxVjq8nabJnQk3-66" value="Inventory" style="swimlane;fontStyle=0;childLayout=stackLayout;horizontal=1;startSize=26;horizontalStack=0;resizeParent=1;resizeParentMax=0;resizeLast=0;collapsible=1;marginBottom=0;align=center;fontSize=14;" vertex="1" parent="1">
          <mxGeometry x="20" y="540" width="120" height="146" as="geometry" />
        </mxCell>
        <mxCell id="SexQwbuxVjq8nabJnQk3-68" value="film_id" style="text;strokeColor=none;fillColor=none;spacingLeft=4;spacingRight=4;overflow=hidden;rotatable=0;points=[[0,0.5],[1,0.5]];portConstraint=eastwest;fontSize=12;fontStyle=1" vertex="1" parent="SexQwbuxVjq8nabJnQk3-66">
          <mxGeometry y="26" width="120" height="30" as="geometry" />
        </mxCell>
        <mxCell id="SexQwbuxVjq8nabJnQk3-67" value="inventory_id" style="text;strokeColor=none;fillColor=none;spacingLeft=4;spacingRight=4;overflow=hidden;rotatable=0;points=[[0,0.5],[1,0.5]];portConstraint=eastwest;fontSize=12;fontStyle=0" vertex="1" parent="SexQwbuxVjq8nabJnQk3-66">
          <mxGeometry y="56" width="120" height="30" as="geometry" />
        </mxCell>
        <mxCell id="SexQwbuxVjq8nabJnQk3-69" value="store_id" style="text;strokeColor=none;fillColor=none;spacingLeft=4;spacingRight=4;overflow=hidden;rotatable=0;points=[[0,0.5],[1,0.5]];portConstraint=eastwest;fontSize=12;" vertex="1" parent="SexQwbuxVjq8nabJnQk3-66">
          <mxGeometry y="86" width="120" height="30" as="geometry" />
        </mxCell>
        <mxCell id="SexQwbuxVjq8nabJnQk3-70" value="last_update" style="text;strokeColor=none;fillColor=none;spacingLeft=4;spacingRight=4;overflow=hidden;rotatable=0;points=[[0,0.5],[1,0.5]];portConstraint=eastwest;fontSize=12;" vertex="1" parent="SexQwbuxVjq8nabJnQk3-66">
          <mxGeometry y="116" width="120" height="30" as="geometry" />
        </mxCell>
        <mxCell id="SexQwbuxVjq8nabJnQk3-71" value="city" style="swimlane;fontStyle=0;childLayout=stackLayout;horizontal=1;startSize=26;horizontalStack=0;resizeParent=1;resizeParentMax=0;resizeLast=0;collapsible=1;marginBottom=0;align=center;fontSize=14;" vertex="1" parent="1">
          <mxGeometry x="310" y="1090" width="120" height="56" as="geometry" />
        </mxCell>
        <mxCell id="SexQwbuxVjq8nabJnQk3-72" value=" " style="text;strokeColor=none;fillColor=none;spacingLeft=4;spacingRight=4;overflow=hidden;rotatable=0;points=[[0,0.5],[1,0.5]];portConstraint=eastwest;fontSize=12;fontStyle=1" vertex="1" parent="SexQwbuxVjq8nabJnQk3-71">
          <mxGeometry y="26" width="120" height="30" as="geometry" />
        </mxCell>
        <mxCell id="SexQwbuxVjq8nabJnQk3-73" value="customer" style="swimlane;fontStyle=0;childLayout=stackLayout;horizontal=1;startSize=26;horizontalStack=0;resizeParent=1;resizeParentMax=0;resizeLast=0;collapsible=1;marginBottom=0;align=center;fontSize=14;" vertex="1" parent="1">
          <mxGeometry x="470" y="530" width="120" height="270" as="geometry" />
        </mxCell>
        <mxCell id="SexQwbuxVjq8nabJnQk3-78" value="address_id" style="text;strokeColor=none;fillColor=none;spacingLeft=4;spacingRight=4;overflow=hidden;rotatable=0;points=[[0,0.5],[1,0.5]];portConstraint=eastwest;fontSize=12;fontStyle=1" vertex="1" parent="SexQwbuxVjq8nabJnQk3-73">
          <mxGeometry y="26" width="120" height="30" as="geometry" />
        </mxCell>
        <mxCell id="SexQwbuxVjq8nabJnQk3-74" value="customer_id" style="text;strokeColor=none;fillColor=none;spacingLeft=4;spacingRight=4;overflow=hidden;rotatable=0;points=[[0,0.5],[1,0.5]];portConstraint=eastwest;fontSize=12;fontStyle=0" vertex="1" parent="SexQwbuxVjq8nabJnQk3-73">
          <mxGeometry y="56" width="120" height="30" as="geometry" />
        </mxCell>
        <mxCell id="SexQwbuxVjq8nabJnQk3-75" value="first_name" style="text;strokeColor=none;fillColor=none;spacingLeft=4;spacingRight=4;overflow=hidden;rotatable=0;points=[[0,0.5],[1,0.5]];portConstraint=eastwest;fontSize=12;" vertex="1" parent="SexQwbuxVjq8nabJnQk3-73">
          <mxGeometry y="86" width="120" height="30" as="geometry" />
        </mxCell>
        <mxCell id="SexQwbuxVjq8nabJnQk3-76" value="last_name" style="text;strokeColor=none;fillColor=none;spacingLeft=4;spacingRight=4;overflow=hidden;rotatable=0;points=[[0,0.5],[1,0.5]];portConstraint=eastwest;fontSize=12;" vertex="1" parent="SexQwbuxVjq8nabJnQk3-73">
          <mxGeometry y="116" width="120" height="34" as="geometry" />
        </mxCell>
        <mxCell id="SexQwbuxVjq8nabJnQk3-77" value="email" style="text;strokeColor=none;fillColor=none;spacingLeft=4;spacingRight=4;overflow=hidden;rotatable=0;points=[[0,0.5],[1,0.5]];portConstraint=eastwest;fontSize=12;fontStyle=0" vertex="1" parent="SexQwbuxVjq8nabJnQk3-73">
          <mxGeometry y="150" width="120" height="34" as="geometry" />
        </mxCell>
        <mxCell id="SexQwbuxVjq8nabJnQk3-79" value="active" style="text;strokeColor=none;fillColor=none;spacingLeft=4;spacingRight=4;overflow=hidden;rotatable=0;points=[[0,0.5],[1,0.5]];portConstraint=eastwest;fontSize=12;" vertex="1" parent="SexQwbuxVjq8nabJnQk3-73">
          <mxGeometry y="184" width="120" height="30" as="geometry" />
        </mxCell>
        <mxCell id="SexQwbuxVjq8nabJnQk3-80" value="create_date" style="text;strokeColor=none;fillColor=none;spacingLeft=4;spacingRight=4;overflow=hidden;rotatable=0;points=[[0,0.5],[1,0.5]];portConstraint=eastwest;fontSize=12;" vertex="1" parent="SexQwbuxVjq8nabJnQk3-73">
          <mxGeometry y="214" width="120" height="30" as="geometry" />
        </mxCell>
        <mxCell id="SexQwbuxVjq8nabJnQk3-82" value="last_update" style="text;strokeColor=none;fillColor=none;spacingLeft=4;spacingRight=4;overflow=hidden;rotatable=0;points=[[0,0.5],[1,0.5]];portConstraint=eastwest;fontSize=12;" vertex="1" parent="SexQwbuxVjq8nabJnQk3-73">
          <mxGeometry y="244" width="120" height="26" as="geometry" />
        </mxCell>
        <mxCell id="SexQwbuxVjq8nabJnQk3-83" value="rental" style="swimlane;fontStyle=0;childLayout=stackLayout;horizontal=1;startSize=26;horizontalStack=0;resizeParent=1;resizeParentMax=0;resizeLast=0;collapsible=1;marginBottom=0;align=center;fontSize=14;" vertex="1" parent="1">
          <mxGeometry x="260" y="623" width="120" height="270" as="geometry" />
        </mxCell>
        <mxCell id="SexQwbuxVjq8nabJnQk3-88" value="film_id" style="text;strokeColor=none;fillColor=none;spacingLeft=4;spacingRight=4;overflow=hidden;rotatable=0;points=[[0,0.5],[1,0.5]];portConstraint=eastwest;fontSize=12;fontStyle=1" vertex="1" parent="SexQwbuxVjq8nabJnQk3-83">
          <mxGeometry y="26" width="120" height="30" as="geometry" />
        </mxCell>
        <mxCell id="SexQwbuxVjq8nabJnQk3-84" value="rental_id" style="text;strokeColor=none;fillColor=none;spacingLeft=4;spacingRight=4;overflow=hidden;rotatable=0;points=[[0,0.5],[1,0.5]];portConstraint=eastwest;fontSize=12;fontStyle=0" vertex="1" parent="SexQwbuxVjq8nabJnQk3-83">
          <mxGeometry y="56" width="120" height="30" as="geometry" />
        </mxCell>
        <mxCell id="SexQwbuxVjq8nabJnQk3-85" value="rental_date" style="text;strokeColor=none;fillColor=none;spacingLeft=4;spacingRight=4;overflow=hidden;rotatable=0;points=[[0,0.5],[1,0.5]];portConstraint=eastwest;fontSize=12;" vertex="1" parent="SexQwbuxVjq8nabJnQk3-83">
          <mxGeometry y="86" width="120" height="30" as="geometry" />
        </mxCell>
        <mxCell id="SexQwbuxVjq8nabJnQk3-86" value="inventory_id" style="text;strokeColor=none;fillColor=none;spacingLeft=4;spacingRight=4;overflow=hidden;rotatable=0;points=[[0,0.5],[1,0.5]];portConstraint=eastwest;fontSize=12;" vertex="1" parent="SexQwbuxVjq8nabJnQk3-83">
          <mxGeometry y="116" width="120" height="34" as="geometry" />
        </mxCell>
        <mxCell id="SexQwbuxVjq8nabJnQk3-87" value="customer_id" style="text;strokeColor=none;fillColor=none;spacingLeft=4;spacingRight=4;overflow=hidden;rotatable=0;points=[[0,0.5],[1,0.5]];portConstraint=eastwest;fontSize=12;fontStyle=0" vertex="1" parent="SexQwbuxVjq8nabJnQk3-83">
          <mxGeometry y="150" width="120" height="34" as="geometry" />
        </mxCell>
        <mxCell id="SexQwbuxVjq8nabJnQk3-89" value="return_date" style="text;strokeColor=none;fillColor=none;spacingLeft=4;spacingRight=4;overflow=hidden;rotatable=0;points=[[0,0.5],[1,0.5]];portConstraint=eastwest;fontSize=12;" vertex="1" parent="SexQwbuxVjq8nabJnQk3-83">
          <mxGeometry y="184" width="120" height="30" as="geometry" />
        </mxCell>
        <mxCell id="SexQwbuxVjq8nabJnQk3-90" value="staff_id" style="text;strokeColor=none;fillColor=none;spacingLeft=4;spacingRight=4;overflow=hidden;rotatable=0;points=[[0,0.5],[1,0.5]];portConstraint=eastwest;fontSize=12;" vertex="1" parent="SexQwbuxVjq8nabJnQk3-83">
          <mxGeometry y="214" width="120" height="30" as="geometry" />
        </mxCell>
        <mxCell id="SexQwbuxVjq8nabJnQk3-91" value="last_update" style="text;strokeColor=none;fillColor=none;spacingLeft=4;spacingRight=4;overflow=hidden;rotatable=0;points=[[0,0.5],[1,0.5]];portConstraint=eastwest;fontSize=12;" vertex="1" parent="SexQwbuxVjq8nabJnQk3-83">
          <mxGeometry y="244" width="120" height="26" as="geometry" />
        </mxCell>
        <mxCell id="SexQwbuxVjq8nabJnQk3-92" value="store" style="swimlane;fontStyle=0;childLayout=stackLayout;horizontal=1;startSize=26;horizontalStack=0;resizeParent=1;resizeParentMax=0;resizeLast=0;collapsible=1;marginBottom=0;align=center;fontSize=14;" vertex="1" parent="1">
          <mxGeometry x="470" y="840" width="120" height="146" as="geometry" />
        </mxCell>
        <mxCell id="SexQwbuxVjq8nabJnQk3-95" value="address_id" style="text;strokeColor=none;fillColor=none;spacingLeft=4;spacingRight=4;overflow=hidden;rotatable=0;points=[[0,0.5],[1,0.5]];portConstraint=eastwest;fontSize=12;fontStyle=1" vertex="1" parent="SexQwbuxVjq8nabJnQk3-92">
          <mxGeometry y="26" width="120" height="30" as="geometry" />
        </mxCell>
        <mxCell id="SexQwbuxVjq8nabJnQk3-93" value="store_id" style="text;strokeColor=none;fillColor=none;spacingLeft=4;spacingRight=4;overflow=hidden;rotatable=0;points=[[0,0.5],[1,0.5]];portConstraint=eastwest;fontSize=12;fontStyle=0" vertex="1" parent="SexQwbuxVjq8nabJnQk3-92">
          <mxGeometry y="56" width="120" height="30" as="geometry" />
        </mxCell>
        <mxCell id="SexQwbuxVjq8nabJnQk3-94" value="staff_id" style="text;strokeColor=none;fillColor=none;spacingLeft=4;spacingRight=4;overflow=hidden;rotatable=0;points=[[0,0.5],[1,0.5]];portConstraint=eastwest;fontSize=12;" vertex="1" parent="SexQwbuxVjq8nabJnQk3-92">
          <mxGeometry y="86" width="120" height="30" as="geometry" />
        </mxCell>
        <mxCell id="SexQwbuxVjq8nabJnQk3-96" value="last_update" style="text;strokeColor=none;fillColor=none;spacingLeft=4;spacingRight=4;overflow=hidden;rotatable=0;points=[[0,0.5],[1,0.5]];portConstraint=eastwest;fontSize=12;" vertex="1" parent="SexQwbuxVjq8nabJnQk3-92">
          <mxGeometry y="116" width="120" height="30" as="geometry" />
        </mxCell>
        <mxCell id="SexQwbuxVjq8nabJnQk3-97" value="payment" style="swimlane;fontStyle=0;childLayout=stackLayout;horizontal=1;startSize=26;horizontalStack=0;resizeParent=1;resizeParentMax=0;resizeLast=0;collapsible=1;marginBottom=0;align=center;fontSize=14;" vertex="1" parent="1">
          <mxGeometry x="707" y="190" width="120" height="258" as="geometry" />
        </mxCell>
        <mxCell id="SexQwbuxVjq8nabJnQk3-102" value="film_id" style="text;strokeColor=none;fillColor=none;spacingLeft=4;spacingRight=4;overflow=hidden;rotatable=0;points=[[0,0.5],[1,0.5]];portConstraint=eastwest;fontSize=12;fontStyle=1" vertex="1" parent="SexQwbuxVjq8nabJnQk3-97">
          <mxGeometry y="26" width="120" height="26" as="geometry" />
        </mxCell>
        <mxCell id="SexQwbuxVjq8nabJnQk3-120" value="rental_id" style="text;strokeColor=none;fillColor=none;spacingLeft=4;spacingRight=4;overflow=hidden;rotatable=0;points=[[0,0.5],[1,0.5]];portConstraint=eastwest;fontSize=12;fontStyle=0" vertex="1" parent="SexQwbuxVjq8nabJnQk3-97">
          <mxGeometry y="52" width="120" height="26" as="geometry" />
        </mxCell>
        <mxCell id="SexQwbuxVjq8nabJnQk3-98" value="payment_id" style="text;strokeColor=none;fillColor=none;spacingLeft=4;spacingRight=4;overflow=hidden;rotatable=0;points=[[0,0.5],[1,0.5]];portConstraint=eastwest;fontSize=12;fontStyle=0" vertex="1" parent="SexQwbuxVjq8nabJnQk3-97">
          <mxGeometry y="78" width="120" height="30" as="geometry" />
        </mxCell>
        <mxCell id="SexQwbuxVjq8nabJnQk3-99" value="customer_id" style="text;strokeColor=none;fillColor=none;spacingLeft=4;spacingRight=4;overflow=hidden;rotatable=0;points=[[0,0.5],[1,0.5]];portConstraint=eastwest;fontSize=12;" vertex="1" parent="SexQwbuxVjq8nabJnQk3-97">
          <mxGeometry y="108" width="120" height="30" as="geometry" />
        </mxCell>
        <mxCell id="SexQwbuxVjq8nabJnQk3-100" value="staff_id" style="text;strokeColor=none;fillColor=none;spacingLeft=4;spacingRight=4;overflow=hidden;rotatable=0;points=[[0,0.5],[1,0.5]];portConstraint=eastwest;fontSize=12;" vertex="1" parent="SexQwbuxVjq8nabJnQk3-97">
          <mxGeometry y="138" width="120" height="30" as="geometry" />
        </mxCell>
        <mxCell id="SexQwbuxVjq8nabJnQk3-103" value="amount" style="text;strokeColor=none;fillColor=none;spacingLeft=4;spacingRight=4;overflow=hidden;rotatable=0;points=[[0,0.5],[1,0.5]];portConstraint=eastwest;fontSize=12;" vertex="1" parent="SexQwbuxVjq8nabJnQk3-97">
          <mxGeometry y="168" width="120" height="30" as="geometry" />
        </mxCell>
        <mxCell id="SexQwbuxVjq8nabJnQk3-104" value="payment_date" style="text;strokeColor=none;fillColor=none;spacingLeft=4;spacingRight=4;overflow=hidden;rotatable=0;points=[[0,0.5],[1,0.5]];portConstraint=eastwest;fontSize=12;" vertex="1" parent="SexQwbuxVjq8nabJnQk3-97">
          <mxGeometry y="198" width="120" height="30" as="geometry" />
        </mxCell>
        <mxCell id="SexQwbuxVjq8nabJnQk3-101" value="last_update" style="text;strokeColor=none;fillColor=none;spacingLeft=4;spacingRight=4;overflow=hidden;rotatable=0;points=[[0,0.5],[1,0.5]];portConstraint=eastwest;fontSize=12;" vertex="1" parent="SexQwbuxVjq8nabJnQk3-97">
          <mxGeometry y="228" width="120" height="30" as="geometry" />
        </mxCell>
        <mxCell id="SexQwbuxVjq8nabJnQk3-105" value="staff" style="swimlane;fontStyle=0;childLayout=stackLayout;horizontal=1;startSize=26;horizontalStack=0;resizeParent=1;resizeParentMax=0;resizeLast=0;collapsible=1;marginBottom=0;align=center;fontSize=14;" vertex="1" parent="1">
          <mxGeometry x="707" y="516" width="113" height="296" as="geometry" />
        </mxCell>
        <mxCell id="SexQwbuxVjq8nabJnQk3-110" value="address_id" style="text;strokeColor=none;fillColor=none;spacingLeft=4;spacingRight=4;overflow=hidden;rotatable=0;points=[[0,0.5],[1,0.5]];portConstraint=eastwest;fontSize=12;fontStyle=1" vertex="1" parent="SexQwbuxVjq8nabJnQk3-105">
          <mxGeometry y="26" width="113" height="30" as="geometry" />
        </mxCell>
        <mxCell id="SexQwbuxVjq8nabJnQk3-106" value="staff_id" style="text;strokeColor=none;fillColor=none;spacingLeft=4;spacingRight=4;overflow=hidden;rotatable=0;points=[[0,0.5],[1,0.5]];portConstraint=eastwest;fontSize=12;fontStyle=0" vertex="1" parent="SexQwbuxVjq8nabJnQk3-105">
          <mxGeometry y="56" width="113" height="30" as="geometry" />
        </mxCell>
        <mxCell id="SexQwbuxVjq8nabJnQk3-107" value="first_name" style="text;strokeColor=none;fillColor=none;spacingLeft=4;spacingRight=4;overflow=hidden;rotatable=0;points=[[0,0.5],[1,0.5]];portConstraint=eastwest;fontSize=12;" vertex="1" parent="SexQwbuxVjq8nabJnQk3-105">
          <mxGeometry y="86" width="113" height="30" as="geometry" />
        </mxCell>
        <mxCell id="SexQwbuxVjq8nabJnQk3-108" value="last_name" style="text;strokeColor=none;fillColor=none;spacingLeft=4;spacingRight=4;overflow=hidden;rotatable=0;points=[[0,0.5],[1,0.5]];portConstraint=eastwest;fontSize=12;" vertex="1" parent="SexQwbuxVjq8nabJnQk3-105">
          <mxGeometry y="116" width="113" height="34" as="geometry" />
        </mxCell>
        <mxCell id="SexQwbuxVjq8nabJnQk3-109" value="email" style="text;strokeColor=none;fillColor=none;spacingLeft=4;spacingRight=4;overflow=hidden;rotatable=0;points=[[0,0.5],[1,0.5]];portConstraint=eastwest;fontSize=12;fontStyle=0" vertex="1" parent="SexQwbuxVjq8nabJnQk3-105">
          <mxGeometry y="150" width="113" height="34" as="geometry" />
        </mxCell>
        <mxCell id="SexQwbuxVjq8nabJnQk3-112" value="store_id" style="text;strokeColor=none;fillColor=none;spacingLeft=4;spacingRight=4;overflow=hidden;rotatable=0;points=[[0,0.5],[1,0.5]];portConstraint=eastwest;fontSize=12;" vertex="1" parent="SexQwbuxVjq8nabJnQk3-105">
          <mxGeometry y="184" width="113" height="30" as="geometry" />
        </mxCell>
        <mxCell id="SexQwbuxVjq8nabJnQk3-111" value="active" style="text;strokeColor=none;fillColor=none;spacingLeft=4;spacingRight=4;overflow=hidden;rotatable=0;points=[[0,0.5],[1,0.5]];portConstraint=eastwest;fontSize=12;" vertex="1" parent="SexQwbuxVjq8nabJnQk3-105">
          <mxGeometry y="214" width="113" height="30" as="geometry" />
        </mxCell>
        <mxCell id="SexQwbuxVjq8nabJnQk3-114" value="username" style="text;strokeColor=none;fillColor=none;spacingLeft=4;spacingRight=4;overflow=hidden;rotatable=0;points=[[0,0.5],[1,0.5]];portConstraint=eastwest;fontSize=12;" vertex="1" parent="SexQwbuxVjq8nabJnQk3-105">
          <mxGeometry y="244" width="113" height="26" as="geometry" />
        </mxCell>
        <mxCell id="SexQwbuxVjq8nabJnQk3-113" value="last_update" style="text;strokeColor=none;fillColor=none;spacingLeft=4;spacingRight=4;overflow=hidden;rotatable=0;points=[[0,0.5],[1,0.5]];portConstraint=eastwest;fontSize=12;" vertex="1" parent="SexQwbuxVjq8nabJnQk3-105">
          <mxGeometry y="270" width="113" height="26" as="geometry" />
        </mxCell>
        <mxCell id="SexQwbuxVjq8nabJnQk3-116" style="edgeStyle=orthogonalEdgeStyle;rounded=0;orthogonalLoop=1;jettySize=auto;html=1;entryX=1;entryY=0.5;entryDx=0;entryDy=0;" edge="1" parent="1" source="SexQwbuxVjq8nabJnQk3-36" target="SexQwbuxVjq8nabJnQk3-26">
          <mxGeometry relative="1" as="geometry">
            <Array as="points">
              <mxPoint x="180" y="231" />
              <mxPoint x="180" y="441" />
            </Array>
          </mxGeometry>
        </mxCell>
        <mxCell id="SexQwbuxVjq8nabJnQk3-117" style="edgeStyle=orthogonalEdgeStyle;rounded=0;orthogonalLoop=1;jettySize=auto;html=1;" edge="1" parent="1" source="SexQwbuxVjq8nabJnQk3-36" target="SexQwbuxVjq8nabJnQk3-68">
          <mxGeometry relative="1" as="geometry">
            <Array as="points">
              <mxPoint x="210" y="231" />
              <mxPoint x="210" y="581" />
            </Array>
          </mxGeometry>
        </mxCell>
        <mxCell id="SexQwbuxVjq8nabJnQk3-118" style="edgeStyle=orthogonalEdgeStyle;rounded=0;orthogonalLoop=1;jettySize=auto;html=1;" edge="1" parent="1" source="SexQwbuxVjq8nabJnQk3-36" target="SexQwbuxVjq8nabJnQk3-24">
          <mxGeometry relative="1" as="geometry" />
        </mxCell>
        <mxCell id="SexQwbuxVjq8nabJnQk3-119" style="edgeStyle=orthogonalEdgeStyle;rounded=0;orthogonalLoop=1;jettySize=auto;html=1;entryX=0;entryY=0.5;entryDx=0;entryDy=0;" edge="1" parent="1" source="SexQwbuxVjq8nabJnQk3-36" target="SexQwbuxVjq8nabJnQk3-88">
          <mxGeometry relative="1" as="geometry" />
        </mxCell>
        <mxCell id="SexQwbuxVjq8nabJnQk3-121" style="edgeStyle=orthogonalEdgeStyle;rounded=0;orthogonalLoop=1;jettySize=auto;html=1;entryX=0;entryY=0.5;entryDx=0;entryDy=0;" edge="1" parent="1" source="SexQwbuxVjq8nabJnQk3-36" target="SexQwbuxVjq8nabJnQk3-102">
          <mxGeometry relative="1" as="geometry">
            <Array as="points">
              <mxPoint x="400" y="231" />
              <mxPoint x="400" y="150" />
              <mxPoint x="680" y="150" />
              <mxPoint x="680" y="229" />
            </Array>
          </mxGeometry>
        </mxCell>
        <mxCell id="SexQwbuxVjq8nabJnQk3-122" style="edgeStyle=orthogonalEdgeStyle;rounded=0;orthogonalLoop=1;jettySize=auto;html=1;" edge="1" parent="1" source="SexQwbuxVjq8nabJnQk3-53" target="SexQwbuxVjq8nabJnQk3-110">
          <mxGeometry relative="1" as="geometry" />
        </mxCell>
        <mxCell id="SexQwbuxVjq8nabJnQk3-123" style="edgeStyle=orthogonalEdgeStyle;rounded=0;orthogonalLoop=1;jettySize=auto;html=1;" edge="1" parent="1" source="SexQwbuxVjq8nabJnQk3-53" target="SexQwbuxVjq8nabJnQk3-78">
          <mxGeometry relative="1" as="geometry">
            <Array as="points">
              <mxPoint x="450" y="231" />
              <mxPoint x="450" y="571" />
            </Array>
          </mxGeometry>
        </mxCell>
        <mxCell id="SexQwbuxVjq8nabJnQk3-124" style="edgeStyle=orthogonalEdgeStyle;rounded=0;orthogonalLoop=1;jettySize=auto;html=1;entryX=0;entryY=0.5;entryDx=0;entryDy=0;" edge="1" parent="1" source="SexQwbuxVjq8nabJnQk3-53" target="SexQwbuxVjq8nabJnQk3-95">
          <mxGeometry relative="1" as="geometry">
            <Array as="points">
              <mxPoint x="430" y="231" />
              <mxPoint x="430" y="881" />
            </Array>
          </mxGeometry>
        </mxCell>
        <mxCell id="SexQwbuxVjq8nabJnQk3-126" value="ACTIVITY 2 LAB 3.01" style="whiteSpace=wrap;html=1;aspect=fixed;fontStyle=1;fontSize=25;spacing=0;verticalAlign=top;" vertex="1" parent="1">
          <mxGeometry x="210" width="140" height="140" as="geometry" />
        </mxCell>
      </root>
    </mxGraphModel>
  </diagram>
</mxfile>
